<?xml version="1.0" standalone="no"?><!DOCTYPE svg PUBLIC "-//W3C//DTD SVG 1.1//EN" "http://www.w3.org/Graphics/SVG/1.1/DTD/svg11.dtd"><svg t="1574305845368" class="icon" viewBox="0 0 1024 1024" version="1.1" xmlns="http://www.w3.org/2000/svg" p-id="1879" xmlns:xlink="http://www.w3.org/1999/xlink" width="32" height="32"><defs><style type="text/css"></style></defs><path d="M550.17472 318.83264h-78.06976a12.4928 12.4928 0 0 0-12.45184 12.45184v361.14432c0 6.88128 5.61152 12.45184 12.45184 12.45184h78.06976a12.4928 12.4928 0 0 0 12.45184-12.45184V331.28448a12.41088 12.41088 0 0 0-12.45184-12.45184z m180.224 77.25056h-78.06976a12.4928 12.4928 0 0 0-12.45184 12.4928v283.8528c0 6.88128 5.61152 12.45184 12.45184 12.45184h78.06976a12.4928 12.4928 0 0 0 12.45184-12.45184v-283.8528a12.4928 12.4928 0 0 0-12.45184-12.4928z m-360.36608 128.69632H291.96288a12.45184 12.45184 0 0 0-12.41088 12.45184v155.19744c0 6.88128 5.57056 12.45184 12.41088 12.45184h78.06976a12.4928 12.4928 0 0 0 12.4928-12.45184v-155.19744a12.4928 12.4928 0 0 0-12.4928-12.45184zM512 0C229.70368 0 0 229.70368 0 511.95904c0 282.29632 229.70368 512 512 512 282.25536 0 511.95904-229.70368 511.95904-512C1023.95904 229.70368 794.25536 0 512 0z m0 930.816c-230.97344 0-418.85696-187.88352-418.85696-418.85696 0-230.93248 187.88352-418.85696 418.85696-418.85696 230.93248 0 418.85696 187.92448 418.85696 418.85696 0 230.97344-187.92448 418.85696-418.85696 418.85696z" p-id="1880"></path></svg>