<?xml version="1.0" standalone="no"?><!DOCTYPE svg PUBLIC "-//W3C//DTD SVG 1.1//EN" "http://www.w3.org/Graphics/SVG/1.1/DTD/svg11.dtd"><svg t="1574240890642" class="icon" viewBox="0 0 1251 1024" version="1.1" xmlns="http://www.w3.org/2000/svg" p-id="10368" xmlns:xlink="http://www.w3.org/1999/xlink" width="244.3359375" height="200"><defs><style type="text/css"></style></defs><path d="M1245.53256 504.010155c0.11349 2.269805 1.361883 4.199139 1.361883 6.582434v0.22698c0 29.507462-11.576004 57.426061-32.571699 77.967795L808.481647 990.088852a110.652984 110.652984 0 0 1-78.875717 32.458209 110.879964 110.879964 0 0 1-78.989207-32.458209 108.156199 108.156199 0 0 1-32.685189-77.967795c0-29.620953 11.462514-57.199081 32.685189-78.308265l214.950514-212.567219H111.765065A111.220435 111.220435 0 0 1 0.090669 510.592589c0-60.830769 50.162686-110.539494 111.674396-110.539494h753.575192L650.616723 187.485876a109.745062 109.745062 0 0 1 0-156.27606 112.695808 112.695808 0 0 1 157.864924 0l405.841097 401.301488c3.177727 3.291217 4.53961 7.490356 7.263376 11.008553 6.241963 7.717336 12.710907 15.321182 16.569575 24.513892a109.291101 109.291101 0 0 1 7.376865 35.976406z" p-id="10369"></path></svg>